<?xml version="1.0" standalone="no"?>
<!DOCTYPE svg PUBLIC "-//W3C//DTD SVG 20010904//EN"
 "http://www.w3.org/TR/2001/REC-SVG-20010904/DTD/svg10.dtd">
<svg version="1.0" xmlns="http://www.w3.org/2000/svg"
 width="1024.000000pt" height="491.000000pt" viewBox="0 0 1024.000000 491.000000"
 preserveAspectRatio="xMidYMid meet">

<g transform="translate(0.000000,491.000000) scale(0.100000,-0.100000)"
fill="#000000" stroke="none">
<path d="M7705 4346 l-210 -82 -3 -75 c-2 -60 2 -86 23 -138 14 -36 24 -66 22
-67 -2 -2 -88 33 -192 76 l-190 80 -53 -21 -53 -22 -100 38 c-55 21 -102 35
-106 32 -3 -4 -65 -160 -137 -348 -73 -189 -138 -345 -145 -347 -21 -7 -13 17
98 306 99 258 101 265 101 347 l0 83 -67 26 c-38 14 -138 52 -223 85 -85 32
-157 57 -160 56 -3 -2 -59 -143 -125 -314 -65 -171 -122 -311 -126 -311 -12 0
-29 59 -18 65 5 4 9 40 9 82 0 70 -6 91 -76 277 -42 111 -82 206 -88 212 -15
15 -794 -284 -808 -310 -6 -10 -8 -48 -6 -85 4 -57 35 -144 216 -615 117 -303
215 -553 219 -557 7 -6 409 144 441 164 7 5 12 33 12 77 0 57 -7 88 -40 172
-22 56 -36 106 -32 110 4 3 30 15 58 26 l50 20 16 -85 c22 -118 66 -202 147
-282 111 -111 258 -171 416 -171 141 0 253 46 350 144 66 65 96 121 156 283
18 51 37 89 41 85 3 -4 52 -126 108 -272 56 -146 106 -275 111 -287 4 -13 15
-23 23 -23 14 0 394 143 429 161 28 15 23 131 -8 215 -14 37 -24 68 -22 70 1
1 88 -33 192 -77 l190 -80 115 44 115 44 -1 89 0 89 -211 545 c-170 442 -214
545 -229 547 -11 1 -113 -36 -229 -81z m223 -133 c16 -49 44 -125 60 -170 l31
-81 -85 -31 c-47 -17 -93 -35 -102 -40 -10 -4 -29 -11 -44 -15 -24 -6 -30 -2
-48 33 -42 83 -120 285 -113 292 11 11 234 97 255 98 12 1 24 -22 46 -86z
m-2051 -63 c23 -63 42 -120 43 -125 0 -6 -17 -17 -37 -24 -21 -7 -100 -36
-176 -64 l-139 -52 5 -30 c3 -16 8 -37 12 -46 5 -13 -18 -25 -116 -63 -72 -27
-126 -43 -131 -38 -17 17 -137 317 -129 324 6 7 159 68 471 188 69 26 132 47
140 46 10 -1 30 -43 57 -116z m636 54 c67 -26 124 -48 126 -50 5 -5 -130 -333
-139 -339 -5 -3 -21 0 -37 6 -15 6 -30 11 -33 12 -3 0 -43 15 -90 33 -81 30
-85 33 -83 60 2 50 104 324 119 324 8 0 70 -21 137 -46z m523 -200 c65 -26
123 -50 127 -54 4 -4 -14 -63 -42 -131 -81 -204 -90 -221 -103 -212 -7 4 -17
8 -23 9 -34 6 -208 80 -212 90 -4 11 97 309 113 336 8 12 13 11 140 -38z m410
-107 c190 -86 183 -82 148 -95 -16 -6 -103 -39 -194 -75 -215 -84 -210 -83
-210 -60 0 10 18 68 39 128 55 155 59 165 70 165 5 0 71 -28 147 -63z"/>
<path d="M2138 4276 c-42 -12 -102 -38 -133 -57 -76 -46 -161 -139 -199 -219
-31 -64 -31 -67 -31 -225 0 -157 1 -161 29 -220 35 -71 94 -137 153 -172 24
-14 43 -26 43 -27 0 -1 -13 -37 -30 -79 -23 -61 -30 -94 -30 -149 l0 -72 49
-47 c71 -69 139 -92 271 -92 182 -1 316 51 434 167 l69 68 21 -28 c46 -64 95
-110 163 -155 290 -190 643 -169 863 51 71 72 139 187 161 273 6 27 15 45 20
40 4 -4 46 -109 94 -233 47 -124 90 -237 96 -252 6 -16 17 -28 24 -28 7 0 131
45 275 101 144 55 263 99 264 97 2 -2 12 -19 24 -38 54 -91 144 -142 248 -141
115 1 199 54 246 156 20 43 23 66 23 170 0 101 -4 127 -22 167 -54 117 -159
183 -280 176 l-63 -4 -35 93 c-20 51 -40 95 -45 98 -5 3 -85 -25 -179 -61 -94
-37 -173 -65 -175 -63 -1 2 -61 155 -131 339 -70 184 -131 338 -134 342 -3 4
-105 -31 -225 -78 l-220 -84 -57 40 c-136 95 -262 135 -429 134 -135 0 -216
-21 -319 -81 -110 -65 -215 -186 -257 -294 -9 -24 -20 -47 -23 -51 -4 -5 -37
8 -73 27 l-67 36 20 45 c14 33 19 69 19 130 0 84 0 84 -38 122 -94 94 -256
125 -414 78z m278 -103 c65 -34 65 -37 24 -141 -21 -51 -40 -95 -42 -97 -2 -2
-21 0 -43 5 -48 11 -131 -3 -165 -29 -34 -24 -39 -74 -10 -94 21 -14 20 -15
-27 -33 -26 -10 -86 -32 -132 -51 -46 -18 -88 -30 -93 -27 -24 15 -51 100 -50
156 2 135 127 280 281 324 69 20 206 13 257 -13z m1035 -22 c41 -11 106 -36
144 -57 84 -45 199 -157 238 -231 43 -81 71 -236 48 -271 -7 -11 -21 -9 -72
13 -35 14 -94 37 -130 51 -58 22 -69 30 -84 64 -28 61 -99 125 -171 154 -78
32 -139 33 -219 5 l-60 -21 -133 52 -132 52 20 28 c49 69 156 139 251 164 78
21 211 20 300 -3z m767 -168 c28 -82 54 -157 57 -169 5 -18 -8 -25 -117 -68
-66 -26 -125 -43 -129 -39 -11 11 -138 317 -134 321 4 4 257 101 266 102 3 0
28 -66 57 -147z m-830 -349 c46 -19 92 -62 92 -86 0 -29 -43 -65 -91 -78 -63
-17 -138 1 -185 45 l-36 34 18 32 c37 63 124 86 202 53z m1714 -252 c37 -27
68 -75 68 -106 0 -21 -3 -21 -88 11 -64 24 -77 33 -94 66 -11 22 -17 45 -14
52 8 21 84 7 128 -23z"/>
<path d="M3105 2147 c-116 -45 -216 -86 -223 -90 -8 -5 -12 -34 -12 -82 0 -60
6 -90 36 -167 134 -349 183 -482 179 -487 -14 -13 -42 49 -161 361 -71 186
-134 338 -140 338 -6 0 -87 -29 -179 -65 -93 -36 -174 -65 -181 -65 -7 0 -14
12 -16 27 -3 24 -15 31 -145 81 l-143 55 -277 -274 -278 -274 -179 -68 c-99
-37 -183 -64 -187 -60 -4 4 -64 156 -134 338 -69 181 -129 333 -133 337 -4 3
-107 -32 -229 -79 l-223 -86 0 -80 0 -80 212 -553 c126 -326 218 -554 226
-554 6 0 141 50 299 110 l288 111 83 -32 84 -31 43 42 42 41 109 -43 109 -43
5 -57 c3 -31 7 -58 10 -61 3 -2 111 -45 240 -94 148 -57 239 -87 245 -81 18
17 17 165 -5 528 -12 199 -20 363 -18 366 3 2 40 -87 83 -199 42 -111 89 -222
103 -246 59 -101 173 -183 299 -216 158 -41 373 11 502 121 21 19 45 34 53 34
7 0 87 -29 178 -64 91 -35 169 -60 173 -56 5 4 32 70 62 146 29 77 57 138 62
138 4 -1 53 -97 109 -214 l100 -213 113 -43 c62 -24 116 -44 120 -44 3 0 58
135 121 300 63 165 117 300 120 300 3 0 20 -30 39 -66 69 -133 189 -235 341
-288 74 -26 99 -30 195 -30 133 -1 226 19 340 75 45 21 86 39 92 39 6 0 76
-25 156 -55 79 -30 148 -55 154 -55 5 0 38 73 72 163 35 89 66 165 69 169 4 4
13 4 20 -1 9 -5 2 -33 -28 -110 -35 -88 -40 -113 -40 -181 0 -53 4 -80 13 -83
151 -63 433 -165 440 -158 7 7 115 282 232 590 18 48 30 69 35 60 4 -8 56
-140 115 -294 59 -154 111 -284 116 -289 5 -6 98 25 229 75 l220 84 0 42 c0
23 4 44 9 48 5 3 57 -13 116 -36 l107 -41 42 41 43 42 111 -42 112 -42 0 -47
c0 -25 6 -54 13 -63 6 -9 116 -57 242 -106 203 -78 231 -86 243 -73 8 10 12
52 12 121 0 137 -70 1290 -80 1317 -6 15 -44 34 -145 72 l-136 52 -29 -22
c-15 -13 -115 -109 -221 -215 -121 -120 -196 -188 -200 -180 -3 7 -9 35 -12
63 -20 181 -183 341 -378 374 -126 21 -178 10 -493 -111 l-138 -54 -90 33
c-50 17 -94 30 -98 27 -4 -2 -35 -79 -70 -170 -35 -91 -67 -165 -72 -165 -21
0 -17 34 17 121 32 84 35 101 33 177 l-3 84 -220 84 c-121 46 -222 80 -226 76
-4 -4 -66 -162 -139 -352 -72 -190 -133 -347 -135 -349 -4 -3 -105 55 -153 87
-10 6 0 49 43 186 43 138 55 192 55 242 0 82 -12 94 -121 125 -70 20 -105 24
-214 23 -113 0 -141 -4 -211 -27 -99 -33 -217 -108 -290 -185 -30 -31 -54 -60
-54 -64 0 -15 -29 -8 -171 47 -79 30 -150 55 -159 55 -10 0 -32 -45 -70 -145
-30 -80 -58 -145 -61 -145 -4 0 -50 93 -104 208 -53 114 -102 212 -108 219
-20 19 -228 96 -236 87 -4 -5 -59 -143 -121 -306 -62 -164 -116 -298 -119
-298 -3 0 -59 141 -125 313 -65 171 -124 317 -130 324 -8 9 -61 -8 -221 -70z
m203 -149 c62 -172 84 -239 81 -243 -2 -2 -58 -24 -124 -49 -95 -36 -122 -43
-132 -33 -13 14 -133 303 -133 323 0 7 33 25 73 40 39 15 97 37 127 50 30 12
58 23 61 23 4 1 25 -50 47 -111z m2912 -18 c30 -12 56 -23 58 -24 5 -6 -127
-316 -143 -334 -2 -2 -29 8 -61 21 -33 13 -87 34 -121 47 -35 12 -63 26 -63
31 0 10 106 315 115 328 5 10 68 -11 215 -69z m-2276 52 c38 -17 42 -24 142
-247 57 -126 101 -231 99 -234 -3 -3 -245 86 -393 145 -31 13 -33 16 -27 46 6
27 75 228 100 291 9 21 29 21 79 -1z m1506 -13 c19 -6 38 -14 42 -18 3 -3 -13
-58 -35 -121 l-42 -114 -87 3 c-62 2 -103 -2 -138 -14 -61 -20 -138 -88 -171
-149 -19 -37 -33 -49 -69 -63 -25 -9 -82 -31 -127 -48 -62 -24 -83 -29 -83
-19 0 8 25 82 55 166 48 134 53 153 39 163 -14 10 -7 20 50 72 76 69 185 131
266 150 65 15 249 10 300 -8z m1905 -60 c100 -37 204 -142 193 -196 -2 -10
-44 -32 -113 -58 l-110 -42 -29 28 c-36 36 -87 38 -166 5 -59 -24 -62 -31 -42
-92 l10 -31 -122 -45 c-73 -27 -124 -41 -127 -35 -4 5 14 66 39 136 65 183 66
173 -8 201 -33 13 -58 26 -53 30 9 8 269 106 298 113 57 13 177 6 230 -14z
m-6475 -32 c0 -2 22 -63 49 -137 26 -74 51 -149 55 -166 l7 -32 -103 -39
c-158 -62 -143 -61 -168 -6 -59 132 -112 275 -104 283 9 8 242 99 257 100 4 0
7 -1 7 -3z m1355 -26 l70 -27 6 -64 c10 -96 14 -318 6 -326 -8 -9 -448 158
-445 168 8 23 262 278 276 277 9 0 49 -13 87 -28z m6021 1 c82 -34 78 -24 87
-264 5 -131 4 -158 -8 -158 -14 0 -423 155 -432 164 -9 9 13 36 132 161 65 69
126 125 135 125 9 0 48 -13 86 -28z m-5503 -44 c60 -160 106 -303 100 -308 -8
-6 -126 -53 -205 -81 -24 -8 -41 -10 -47 -4 -17 17 -140 330 -133 337 8 8 242
96 258 97 6 1 18 -18 27 -41z m3937 -58 l128 -51 -59 -145 c-32 -80 -65 -156
-71 -168 l-13 -24 -118 46 c-66 25 -121 52 -124 59 -7 18 107 333 120 333 5 0
67 -23 137 -50z m-2102 -15 c67 -26 122 -53 122 -60 0 -16 -119 -307 -130
-319 -12 -12 -250 83 -250 99 0 44 110 337 124 332 6 -3 66 -26 134 -52z m802
-273 c30 -10 56 -24 58 -32 4 -24 -58 -91 -102 -111 -69 -31 -145 -22 -193 23
-30 28 -29 49 6 82 57 55 135 68 231 38z"/>
<path d="M9015 2045 c-33 -8 -168 -56 -300 -107 l-240 -93 -3 -83 -3 -82 210
-547 c116 -300 214 -550 218 -554 10 -9 432 153 524 201 179 93 295 237 335
418 20 92 15 307 -10 397 -63 227 -223 398 -422 450 -71 18 -225 18 -309 0z
m257 -96 c85 -18 170 -63 221 -118 26 -28 47 -54 47 -59 0 -9 -108 -58 -211
-96 -43 -16 -49 -16 -104 -1 -70 21 -132 16 -217 -17 -54 -21 -58 -25 -52 -48
19 -68 18 -70 -106 -116 l-115 -42 -14 26 c-8 15 -40 89 -72 165 l-58 139 35
14 c110 46 357 133 404 143 30 6 64 13 75 15 41 8 116 6 167 -5z m-50 -536
c10 -9 18 -21 18 -26 0 -15 -41 -57 -55 -57 -12 0 -45 73 -45 99 0 18 57 7 82
-16z"/>
</g>
</svg>
